# xmcd
#
# Track frame offsets:
# 150
# 20001
# 33540
# 55035
# 80226
# 95271
# 114784
# 134997
# 152812
# 172693
# 190539
# 216992
#
# Disc length: 3053 seconds
#
# Revision: 0
# Processed by: cddbd v1.5.1PL0 Copyright (c) Steve Scherf et al.
# Submitted via: Audion 3.0.2 (http://www.panic.com/audion/)
#
DISCID=9d0beb0c
DTITLE=Jimmy Snow - Touch Through Me
DYEAR=1900
DGENRE=
TTITLE0=01 Steps
TTITLE1=02 Home Where I Belong
TTITLE2=03 Through Through Me
TTITLE3=04 I'm In Love With Jesus
TTITLE4=05 Prison Of Freedom
TTITLE5=06 He Only Needs It For The Weekend
TTITLE6=07 What Sin
TTITLE7=08 Till I Come
TTITLE8=09 How'd I Get To Be Such An Old Man So Fast
TTITLE9=10 Jesus, He Is The Son Of God
TTITLE10=11 Born Again
TTITLE11=12 Tell The World
EXTD=
EXTT0=
EXTT1=
EXTT2=
EXTT3=
EXTT4=
EXTT5=
EXTT6=
EXTT7=
EXTT8=
EXTT9=
EXTT10=
EXTT11=
PLAYORDER=
